<svg xmlns="http://www.w3.org/2000/svg" viewBox="0 0 1440 900" width="1440" height="900" font-family="Inter, Segoe UI, Arial, sans-serif" role="img" aria-labelledby="t d"><title id="t">Peblo AI Hub: chat with citations, model picker and sources drawer</title><desc id="d">Mid-fidelity wireframe of the AI Hub page. Left: icon rail and conversation list. Centre: a chat grounded in the user's notes with numbered citations, the model picker open (local and cloud models with badges), and attach-context chips in the composer. Right: the Sources used drawer showing exactly which notes, tasks and events the model saw.</desc><defs><filter id="blur" x="-10%" y="-10%" width="120%" height="140%"><feGaussianBlur stdDeviation="8"/></filter></defs><rect width="1440" height="900" fill="#f8fafc"/>
<rect x="0" y="0" width="64" height="900" rx="0" fill="#ffffff" />
<line x1="64" y1="0" x2="64" y2="900" stroke="#e2e8f0" stroke-width="1"/>
<rect x="18" y="16" width="28" height="28" rx="8" fill="#4f46e5" />
<text x="32" y="35" font-size="17" fill="#fff" font-weight="700" text-anchor="middle">p</text>
<rect x="14" y="60" width="36" height="36" rx="8" fill="#f1f5f9" />
<circle cx="31" cy="77" r="5" fill="none" stroke="#475569" stroke-width="1.6"/>
<path d="M35 81 L39 85" fill="none" stroke="#475569" stroke-width="1.6" stroke-linecap="round" stroke-linejoin="round"/>
<path d="M26 132 L32 126 L38 132 M28 131 V138 H36 V131" fill="none" stroke="#475569" stroke-width="1.6" stroke-linecap="round" stroke-linejoin="round"/>
<path d="M27 173 H34 L37 176 V187 H27 Z M29.5 179 H34.5 M29.5 182.5 H34.5" fill="none" stroke="#475569" stroke-width="1.6" stroke-linecap="round" stroke-linejoin="round"/>
<rect x="26" y="222" width="12" height="12" rx="3" fill="none" stroke="#475569" stroke-width="1.6" />
<path d="M29 228 L31.5 230.5 L35 225.5" fill="none" stroke="#475569" stroke-width="1.6" stroke-linecap="round" stroke-linejoin="round"/>
<rect x="26" y="271" width="12" height="11" rx="2" fill="none" stroke="#475569" stroke-width="1.6" />
<path d="M26 275 H38 M29 269 V272 M35 269 V272" fill="none" stroke="#475569" stroke-width="1.6" stroke-linecap="round" stroke-linejoin="round"/>
<rect x="12" y="304" width="40" height="40" rx="10" fill="#eef2ff" />
<rect x="0" y="312" width="3" height="24" rx="1.5" fill="#4f46e5" />
<path d="M32 317 L33.6 322.4 L39 324 L33.6 325.6 L32 331 L30.4 325.6 L25 324 L30.4 322.4 Z" fill="none" stroke="#4f46e5" stroke-width="1.4" stroke-linecap="round" stroke-linejoin="round"/>
<circle cx="32" cy="796" r="5" fill="#10b981"/>
<text x="32" y="816" font-size="12" fill="#047857" font-weight="600" text-anchor="middle">Local</text>
<circle cx="32" cy="856" r="2.5" fill="none" stroke="#475569" stroke-width="1.6"/>
<circle cx="32" cy="856" r="6" fill="none" stroke="#475569" stroke-width="1.6"/>
<path d="M32.0 850.0 L32 848" fill="none" stroke="#475569" stroke-width="2" stroke-linecap="round" stroke-linejoin="round"/>
<path d="M32.0 862.0 L32 864" fill="none" stroke="#475569" stroke-width="2" stroke-linecap="round" stroke-linejoin="round"/>
<path d="M26.0 856.0 L24 856" fill="none" stroke="#475569" stroke-width="2" stroke-linecap="round" stroke-linejoin="round"/>
<path d="M38.0 856.0 L40 856" fill="none" stroke="#475569" stroke-width="2" stroke-linecap="round" stroke-linejoin="round"/>
<rect x="64" y="0" width="264" height="900" rx="0" fill="#f8fafc" />
<line x1="328" y1="0" x2="328" y2="900" stroke="#e2e8f0" stroke-width="1"/>
<text x="84" y="38" font-size="18" fill="#0f172a" font-weight="700">AI Hub</text>
<rect x="80" y="56" width="232" height="34" rx="8" fill="#4f46e5" />
<path d="M162.555 67.0 V79.0 M156.555 73.0 H168.555" fill="none" stroke="#ffffff" stroke-width="1.8" stroke-linecap="round" stroke-linejoin="round"/>
<text x="204" y="77.68" font-size="13" fill="#ffffff" font-weight="600" text-anchor="middle">New chat</text>
<rect x="80" y="104" width="52" height="26" rx="13.0" fill="#eef2ff" stroke="#c7d2fe" stroke-width="1" />
<text x="89" y="121.68" font-size="13" fill="#3730a3" font-weight="500">Chats</text>
<rect x="138" y="104" width="93" height="26" rx="13.0" fill="#f8fafc" />
<text x="147" y="121.68" font-size="13" fill="#475569" font-weight="500">Connections</text>
<rect x="237" y="104" width="60" height="26" rx="13.0" fill="#f8fafc" />
<text x="246" y="121.68" font-size="13" fill="#475569" font-weight="500">Agents</text>
<rect x="80" y="142" width="232" height="32" rx="8" fill="#ffffff" stroke="#e2e8f0" stroke-width="1" />
<circle cx="97" cy="157" r="5" fill="none" stroke="#64748b" stroke-width="1.6"/>
<path d="M101 161 L105 165" fill="none" stroke="#64748b" stroke-width="1.6" stroke-linecap="round" stroke-linejoin="round"/>
<text x="112" y="163" font-size="13" fill="#64748b">Search chats</text>
<text x="84" y="200" font-size="12" fill="#64748b" font-weight="600">TODAY</text>
<rect x="74" y="212" width="244" height="50" rx="8" fill="#ffffff" stroke="#c7d2fe" stroke-width="1" />
<text x="86" y="233" font-size="13" fill="#0f172a" font-weight="600">DBMS exam revision plan</text>
<circle cx="89" cy="248" r="3.5" fill="#10b981"/>
<text x="98" y="252" font-size="12" fill="#64748b">llama3.2 3B · Local</text>
<text x="86" y="287" font-size="13" fill="#0f172a" font-weight="500">Summarise internship feedback</text>
<circle cx="89" cy="302" r="3.5" fill="#0369a1"/>
<text x="98" y="306" font-size="12" fill="#64748b">GPT-4o mini · Cloud</text>
<text x="84" y="334" font-size="12" fill="#64748b" font-weight="600">YESTERDAY</text>
<text x="86" y="367" font-size="13" fill="#0f172a" font-weight="500">Lab viva: likely questions</text>
<circle cx="89" cy="382" r="3.5" fill="#10b981"/>
<text x="98" y="386" font-size="12" fill="#64748b">llama3.2 3B · Local</text>
<text x="86" y="421" font-size="13" fill="#0f172a" font-weight="500">Plan my week around exams</text>
<circle cx="89" cy="436" r="3.5" fill="#10b981"/>
<text x="98" y="440" font-size="12" fill="#64748b">qwen2.5 7B · Local</text>
<text x="84" y="468" font-size="12" fill="#64748b" font-weight="600">PREVIOUS 7 DAYS</text>
<text x="86" y="501" font-size="13" fill="#0f172a" font-weight="500">Explain BCNF simply</text>
<circle cx="89" cy="516" r="3.5" fill="#10b981"/>
<text x="98" y="520" font-size="12" fill="#64748b">llama3.2 3B · Local</text>
<text x="86" y="555" font-size="13" fill="#0f172a" font-weight="500">Draft email to Prof. Rao</text>
<circle cx="89" cy="570" r="3.5" fill="#0369a1"/>
<text x="98" y="574" font-size="12" fill="#64748b">GPT-4o mini · Cloud</text>
<rect x="76" y="752" width="240" height="132" rx="10" fill="#ffffff" stroke="#e2e8f0" stroke-width="1" />
<text x="90" y="776" font-size="13" fill="#0f172a" font-weight="700">Connections</text>
<text x="302" y="776" font-size="12" fill="#4f46e5" text-anchor="end">Manage</text>
<circle cx="94" cy="800" r="4" fill="#10b981"/>
<text x="106" y="804" font-size="12" fill="#475569">Ollama running · 3 models</text>
<circle cx="94" cy="826" r="4" fill="#4f46e5"/>
<text x="106" y="830" font-size="12" fill="#475569">Peblo MCP Server · 2 clients</text>
<circle cx="94" cy="852" r="4" fill="#4f46e5"/>
<text x="106" y="856" font-size="12" fill="#475569">Peblo Connect · 2 servers</text>
<rect x="328" y="0" width="752" height="900" rx="0" fill="#ffffff" />
<line x1="328" y1="56" x2="1080" y2="56" stroke="#e2e8f0" stroke-width="1"/>
<rect x="344" y="12" width="214" height="32" rx="8" fill="#f1f5f9" stroke="#4f46e5" stroke-width="1.5" />
<circle cx="360" cy="28" r="4" fill="#10b981"/>
<text x="372" y="33" font-size="13" fill="#0f172a" font-weight="600">llama3.2 3B</text>
<rect x="460" y="18" width="62" height="20" rx="10.0" fill="#ecfdf5" stroke="#a7f3d0" stroke-width="1" />
<circle cx="472" cy="28.0" r="3.5" fill="#10b981"/>
<text x="481" y="32.32" font-size="12" fill="#047857" font-weight="500">Local</text>
<path d="M536 27 L540 31 L544 27" fill="none" stroke="#475569" stroke-width="1.6" stroke-linecap="round" stroke-linejoin="round"/>
<text x="578" y="33" font-size="14" fill="#0f172a" font-weight="600">DBMS exam revision plan</text>
<rect x="930" y="12" width="100" height="32" rx="8" fill="#eef2ff" stroke="#c7d2fe" stroke-width="1" />
<path d="M942 22 H947 A1 1 0 0 1 948 23 V35 A1 1 0 0 0 947 34 H942 Z M954 22 H949 A1 1 0 0 0 948 23 M954 22 V34 H949 A1 1 0 0 0 948 35" fill="none" stroke="#4f46e5" stroke-width="1.3" stroke-linecap="round" stroke-linejoin="round"/>
<text x="962" y="33" font-size="13" fill="#3730a3" font-weight="600">Sources 5</text>
<circle cx="1047" cy="28" r="1.5" fill="#64748b"/>
<circle cx="1052" cy="28" r="1.5" fill="#64748b"/>
<circle cx="1057" cy="28" r="1.5" fill="#64748b"/>
<rect x="844" y="76" width="200" height="38" rx="12" fill="#eef2ff" />
<text x="858" y="100" font-size="13" fill="#0f172a">What topics are in Unit 3?</text>
<text x="364" y="142" font-size="14" fill="#475569">Unit 3 covers functional dependencies, closure of attributes, normal forms from 1NF to BCNF, and</text>
<text x="364" y="164" font-size="14" fill="#475569">lossless-join, dependency-preserving decomposition [1]. Your notes also include two worked</text>
<text x="364" y="186" font-size="14" fill="#475569">examples.</text>
<rect x="728" y="250" width="316" height="78" rx="12" fill="#eef2ff" />
<text x="742" y="274" font-size="13" fill="#0f172a">Make me a 3-day revision plan for DBMS Unit</text>
<text x="742" y="294" font-size="13" fill="#0f172a">3 before Monday's exam. Use my notes and</text>
<text x="742" y="314" font-size="13" fill="#0f172a">tasks.</text>
<circle cx="376" cy="492" r="12" fill="#eef2ff"/>
<path d="M376 485 L377.6 490.4 L383 492 L377.6 493.6 L376 499 L374.4 493.6 L369 492 L374.4 490.4 Z" fill="none" stroke="#4f46e5" stroke-width="1.4" stroke-linecap="round" stroke-linejoin="round"/>
<text x="396" y="497" font-size="13" fill="#0f172a" font-weight="600">llama3.2 3B</text>
<rect x="482" y="482" width="62" height="20" rx="10.0" fill="#ecfdf5" stroke="#a7f3d0" stroke-width="1" />
<circle cx="494" cy="492.0" r="3.5" fill="#10b981"/>
<text x="503" y="496.32" font-size="12" fill="#047857" font-weight="500">Local</text>
<text x="552" y="497" font-size="12" fill="#64748b">· 5 sources · 3.4 s · grounded in your notes</text>
<text x="364" y="528" font-size="14"><tspan fill="#0f172a">Your exam is </tspan><tspan fill="#0f172a" font-weight="600">Mon 28 Sep at 10:00</tspan><tspan fill="#0f172a"> in B-204 </tspan><tspan fill="#4f46e5" font-weight="700">[2]</tspan></text>
<text x="364" y="552" font-size="14"><tspan fill="#0f172a">The weak spot in your notes is </tspan><tspan fill="#0f172a" font-weight="600">BCNF decomposition</tspan><tspan fill="#0f172a">: you marked it “revisit” twice </tspan><tspan fill="#4f46e5" font-weight="700">[1]</tspan></text>
<text x="364" y="576" font-size="14"><tspan fill="#0f172a">Here is a plan that fits around your 9:30 internship standup </tspan><tspan fill="#4f46e5" font-weight="700">[3]</tspan></text>
<circle cx="370" cy="603" r="3" fill="#475569"/>
<text x="382" y="608" font-size="14"><tspan fill="#0f172a" font-weight="700">Fri (today): </tspan><tspan fill="#0f172a">Re-read 1NF to 3NF with the worked examples; finish your task </tspan><tspan fill="#4f46e5" font-weight="700">[1] [4]</tspan></text>
<circle cx="370" cy="629" r="3" fill="#475569"/>
<text x="382" y="634" font-size="14"><tspan fill="#0f172a" font-weight="700">Sat: </tspan><tspan fill="#0f172a">BCNF and lossless decomposition; solve 5 questions from the 2024 paper </tspan><tspan fill="#4f46e5" font-weight="700">[5]</tspan></text>
<circle cx="370" cy="655" r="3" fill="#475569"/>
<text x="382" y="660" font-size="14"><tspan fill="#0f172a" font-weight="700">Sun: </tspan><tspan fill="#0f172a">90-minute mock test, review mistakes, 30 min of lab viva prep</tspan><tspan fill="#4f46e5" font-weight="700"></tspan></text>
<rect x="364" y="694" width="136" height="30" rx="8" fill="#ffffff" stroke="#cbd5e1" stroke-width="1" />
<rect x="377.84" y="703.0" width="12" height="12" rx="3" fill="none" stroke="#0f172a" stroke-width="1.6" />
<path d="M380.84 709.0 L383.34 711.5 L386.84 706.5" fill="none" stroke="#0f172a" stroke-width="1.6" stroke-linecap="round" stroke-linejoin="round"/>
<text x="440" y="713.32" font-size="12" fill="#0f172a" font-weight="600" text-anchor="middle">Create 3 tasks</text>
<rect x="508" y="694" width="125" height="30" rx="8" fill="#ffffff" stroke="#cbd5e1" stroke-width="1" />
<path d="M523.1 702.0 H530.1 L533.1 705.0 V716.0 H523.1 Z M525.6 708.0 H530.6 M525.6 711.5 H530.6" fill="none" stroke="#0f172a" stroke-width="1.6" stroke-linecap="round" stroke-linejoin="round"/>
<text x="578" y="713.32" font-size="12" fill="#0f172a" font-weight="600" text-anchor="middle">Save as note</text>
<rect x="654" y="705" width="9" height="10" rx="2" fill="none" stroke="#64748b" stroke-width="1.4" />
<path d="M652 712 V703 H660" fill="none" stroke="#64748b" stroke-width="1.4" stroke-linecap="round" stroke-linejoin="round"/>
<text x="671" y="714" font-size="12" fill="#64748b">Copy</text>
<text x="721" y="714" font-size="12" fill="#64748b">Regenerate</text>
<text x="805" y="714" font-size="12" fill="#64748b">Compare with another model</text>
<rect x="356" y="760" width="696" height="124" rx="14" fill="#ffffff" stroke="#cbd5e1" stroke-width="1" />
<rect x="370" y="772" width="219" height="26" rx="13" fill="#eef2ff" stroke="#c7d2fe" stroke-width="1" />
<path d="M379 778 H386 L389 781 V792 H379 Z M381.5 784 H386.5 M381.5 787.5 H386.5" fill="none" stroke="#4f46e5" stroke-width="1.6" stroke-linecap="round" stroke-linejoin="round"/>
<text x="396" y="789" font-size="12" fill="#3730a3" font-weight="500">DBMS Unit 3: Normalization</text>
<path d="M573 781 L581 789 M581 781 L573 789" fill="none" stroke="#4f46e5" stroke-width="1.6" stroke-linecap="round" stroke-linejoin="round"/>
<rect x="595" y="772" width="88" height="26" rx="13" fill="#eef2ff" stroke="#c7d2fe" stroke-width="1" />
<text x="605" y="789" font-size="12" fill="#3730a3" font-weight="500">#exams</text>
<path d="M667 781 L675 789 M675 781 L667 789" fill="none" stroke="#4f46e5" stroke-width="1.6" stroke-linecap="round" stroke-linejoin="round"/>
<rect x="689" y="772" width="127" height="26" rx="13" fill="#eef2ff" stroke="#c7d2fe" stroke-width="1" />
<rect x="697" y="780" width="12" height="11" rx="2" fill="none" stroke="#4f46e5" stroke-width="1.6" />
<path d="M697 784 H709 M700 778 V781 M706 778 V781" fill="none" stroke="#4f46e5" stroke-width="1.6" stroke-linecap="round" stroke-linejoin="round"/>
<text x="715" y="789" font-size="12" fill="#3730a3" font-weight="500">Next 7 days</text>
<path d="M800 781 L808 789 M808 781 L800 789" fill="none" stroke="#4f46e5" stroke-width="1.6" stroke-linecap="round" stroke-linejoin="round"/>
<rect x="822" y="772" width="132" height="26" rx="13" fill="#ffffff" stroke="#cbd5e1" stroke-width="1" stroke-dasharray="3 3" />
<text x="834" y="789" font-size="12" fill="#475569">+ Add context   @</text>
<text x="372" y="826" font-size="14" fill="#64748b">Ask a follow-up…   /  for commands   @  to attach notes, tags or dates</text>
<rect x="373" y="862" width="10" height="8" rx="2" fill="none" stroke="#047857" stroke-width="1.6" />
<path d="M375 862 V860 A3 3 0 0 1 381 860 V862" fill="none" stroke="#047857" stroke-width="1.6" stroke-linecap="round" stroke-linejoin="round"/>
<text x="390" y="868" font-size="12" fill="#047857" font-weight="500">Runs on this device. Nothing leaves your computer.</text>
<path d="M952 860 L946.5 865.5 A2.5 2.5 0 0 1 943 862 L949 856 A1.8 1.8 0 0 1 951.5 858.5 L946 864" fill="none" stroke="#475569" stroke-width="1.4" stroke-linecap="round" stroke-linejoin="round"/>
<rect x="973.5" y="855" width="5" height="9" rx="2.5" fill="none" stroke="#475569" stroke-width="1.5" />
<path d="M971 862 A5 5 0 0 0 981 862 M976 867 V869" fill="none" stroke="#475569" stroke-width="1.5" stroke-linecap="round" stroke-linejoin="round"/>
<rect x="1000" y="846" width="36" height="32" rx="8" fill="#4f46e5" />
<path d="M1018 868 V856 M1013 861 L1018 856 L1023 861" fill="none" stroke="#fff" stroke-width="2" stroke-linecap="round" stroke-linejoin="round"/>
<rect x="344" y="56" width="372" height="420" rx="12" fill="#0f172a" opacity="0.08" filter="url(#blur)"/>
<rect x="344" y="50" width="372" height="420" rx="12" fill="#ffffff" stroke="#e2e8f0" stroke-width="1" />
<text x="360" y="78" font-size="13" fill="#0f172a" font-weight="700">Model for this chat</text>
<rect x="604" y="62" width="99" height="20" rx="4" fill="#ffffff" stroke="#cbd5e1" stroke-width="1" />
<text x="653.5" y="76" font-size="12" fill="#475569" text-anchor="middle" font-family="Consolas, Menlo, monospace">Ctrl Shift M</text>
<text x="360" y="106" font-size="12" fill="#64748b" font-weight="600">ON THIS DEVICE</text>
<rect x="352" y="118" width="356" height="48" rx="8" fill="#eef2ff" />
<circle cx="368" cy="136" r="4" fill="#10b981"/>
<text x="380" y="140" font-size="13" fill="#0f172a" font-weight="600">llama3.2 3B</text>
<rect x="465" y="126" width="62" height="20" rx="10.0" fill="#ecfdf5" stroke="#a7f3d0" stroke-width="1" />
<circle cx="477" cy="136.0" r="3.5" fill="#10b981"/>
<text x="486" y="140.32" font-size="12" fill="#047857" font-weight="500">Local</text>
<text x="380" y="158" font-size="12" fill="#64748b">Running · 2.0 GB · good for quick answers</text>
<path d="M682 142 L687 147 L696 136" fill="none" stroke="#4f46e5" stroke-width="2" stroke-linecap="round" stroke-linejoin="round"/>
<circle cx="368" cy="188" r="4" fill="#a7f3d0"/>
<text x="380" y="192" font-size="13" fill="#0f172a" font-weight="600">qwen2.5 7B</text>
<rect x="464" y="178" width="62" height="20" rx="10.0" fill="#ecfdf5" stroke="#a7f3d0" stroke-width="1" />
<circle cx="476" cy="188.0" r="3.5" fill="#10b981"/>
<text x="485" y="192.32" font-size="12" fill="#047857" font-weight="500">Local</text>
<text x="380" y="210" font-size="12" fill="#64748b">Installed · loads in about 6 s · better reasoning</text>
<circle cx="368" cy="240" r="4" fill="#cbd5e1"/>
<text x="380" y="244" font-size="13" fill="#64748b" font-weight="600">nomic-embed-text</text>
<text x="380" y="262" font-size="12" fill="#64748b">Embeddings only: powers search, cannot chat</text>
<line x1="356" y1="278" x2="704" y2="278" stroke="#e2e8f0" stroke-width="1"/>
<text x="360" y="302" font-size="12" fill="#64748b" font-weight="600">CLOUD · your prompt and sources are sent</text>
<circle cx="368" cy="332" r="4" fill="#0369a1"/>
<text x="380" y="336" font-size="13" fill="#0f172a" font-weight="600">GPT-4o mini</text>
<rect x="468" y="322" width="50" height="20" rx="10.0" fill="#f0f9ff" stroke="#bae6fd" stroke-width="1" />
<text x="477" y="336.32" font-size="12" fill="#0369a1" font-weight="500">Cloud</text>
<text x="380" y="354" font-size="12" fill="#64748b">OpenAI · your key · about $0.001 per answer</text>
<circle cx="368" cy="384" r="4" fill="#b45309"/>
<text x="380" y="388" font-size="13" fill="#64748b" font-weight="600">Gemini 2.5 Flash</text>
<rect x="496" y="374" width="50" height="20" rx="10.0" fill="#f0f9ff" stroke="#bae6fd" stroke-width="1" />
<text x="505" y="388.32" font-size="12" fill="#0369a1" font-weight="500">Cloud</text>
<text x="380" y="406" font-size="12" fill="#b45309">Key hit its quota. Replace in Connections</text>
<line x1="344" y1="430" x2="716" y2="430" stroke="#e2e8f0" stroke-width="1"/>
<text x="360" y="455" font-size="12" fill="#64748b">Default for new chats: llama3.2 3B</text>
<text x="700" y="455" font-size="12" fill="#4f46e5" font-weight="600" text-anchor="end">Manage models</text>
<rect x="1080" y="0" width="360" height="900" rx="0" fill="#f8fafc" />
<line x1="1080" y1="0" x2="1080" y2="900" stroke="#e2e8f0" stroke-width="1"/>
<text x="1100" y="34" font-size="16" fill="#0f172a" font-weight="700">Sources used</text>
<rect x="1222" y="18" width="26" height="22" rx="11.0" fill="#eef2ff" stroke="#c7d2fe" stroke-width="1" />
<text x="1231" y="33.32" font-size="12" fill="#3730a3" font-weight="500">5</text>
<path d="M1408 26 L1416 34 M1416 26 L1408 34" fill="none" stroke="#64748b" stroke-width="1.6" stroke-linecap="round" stroke-linejoin="round"/>
<text x="1100" y="56" font-size="12" fill="#64748b">Exactly what the model saw for this answer</text>
<rect x="1096" y="72" width="328" height="70" rx="10" fill="#ffffff" stroke="#e2e8f0" stroke-width="1" />
<text x="1110" y="96" font-size="12" fill="#475569" font-weight="600">Found by local search (nomic-embed-text)</text>
<text x="1110" y="114" font-size="12" fill="#64748b">Searched 214 notes, 38 tasks, 12 events</text>
<text x="1110" y="132" font-size="12" fill="#64748b">1,920 tokens sent to llama3.2 3B on this device</text>
<rect x="1096" y="156" width="328" height="132" rx="10" fill="#ffffff" stroke="#4f46e5" stroke-width="1.5" />
<rect x="1108" y="170" width="18" height="16" rx="5" fill="#eef2ff" stroke="#c7d2fe" stroke-width="1" />
<text x="1117.0" y="182" font-size="12" fill="#4f46e5" font-weight="700" text-anchor="middle">1</text>
<path d="M1135 170 H1142 L1145 173 V184 H1135 Z M1137.5 176 H1142.5 M1137.5 179.5 H1142.5" fill="none" stroke="#475569" stroke-width="1.6" stroke-linecap="round" stroke-linejoin="round"/>
<text x="1154" y="182" font-size="13" fill="#0f172a" font-weight="600">DBMS Unit 3: Normalization</text>
<text x="1154" y="201" font-size="12" fill="#64748b">#exams · edited 20 min ago</text>
<rect x="1108" y="214" width="304" height="44" rx="6" fill="#fef9c3" />
<text x="1116" y="231" font-size="12" fill="#475569">…BCNF: every determinant must be a candidate</text>
<text x="1116" y="249" font-size="12" fill="#475569">key. Revisit: decomposition example 2 (R(A,B,C,D))…</text>
<text x="1108" y="278" font-size="12" fill="#4f46e5" font-weight="600">Open note</text>
<text x="1190" y="278" font-size="12" fill="#64748b">Remove from answer</text>
<rect x="1096" y="298" width="328" height="114" rx="10" fill="#ffffff" stroke="#e2e8f0" stroke-width="1" />
<rect x="1108" y="312" width="18" height="16" rx="5" fill="#eef2ff" stroke="#c7d2fe" stroke-width="1" />
<text x="1117.0" y="324" font-size="12" fill="#4f46e5" font-weight="700" text-anchor="middle">2</text>
<path d="M1135 312 H1142 L1145 315 V326 H1135 Z M1137.5 318 H1142.5 M1137.5 321.5 H1142.5" fill="none" stroke="#475569" stroke-width="1.6" stroke-linecap="round" stroke-linejoin="round"/>
<text x="1154" y="324" font-size="13" fill="#0f172a" font-weight="600">Sem 5 exam timetable</text>
<text x="1154" y="343" font-size="12" fill="#64748b">#exams · imported from Notion</text>
<rect x="1108" y="356" width="304" height="26" rx="6" fill="#f1f5f9" />
<text x="1116" y="373" font-size="12" fill="#475569">DBMS mid-sem: Mon 28 Sep, 10:00, Room B-204</text>
<text x="1108" y="402" font-size="12" fill="#4f46e5" font-weight="600">Open note</text>
<text x="1190" y="402" font-size="12" fill="#64748b">Remove from answer</text>
<rect x="1096" y="422" width="328" height="88" rx="10" fill="#ffffff" stroke="#e2e8f0" stroke-width="1" />
<rect x="1108" y="436" width="18" height="16" rx="5" fill="#eef2ff" stroke="#c7d2fe" stroke-width="1" />
<text x="1117.0" y="448" font-size="12" fill="#4f46e5" font-weight="700" text-anchor="middle">3</text>
<rect x="1134" y="438" width="12" height="11" rx="2" fill="none" stroke="#475569" stroke-width="1.6" />
<path d="M1134 442 H1146 M1137 436 V439 M1143 436 V439" fill="none" stroke="#475569" stroke-width="1.6" stroke-linecap="round" stroke-linejoin="round"/>
<text x="1154" y="448" font-size="13" fill="#0f172a" font-weight="600">Internship standup</text>
<text x="1154" y="467" font-size="12" fill="#64748b">Calendar · daily 09:30 to 09:45</text>
<text x="1108" y="500" font-size="12" fill="#4f46e5" font-weight="600">Open</text>
<text x="1190" y="500" font-size="12" fill="#64748b">Remove from answer</text>
<rect x="1096" y="520" width="328" height="88" rx="10" fill="#ffffff" stroke="#e2e8f0" stroke-width="1" />
<rect x="1108" y="534" width="18" height="16" rx="5" fill="#eef2ff" stroke="#c7d2fe" stroke-width="1" />
<text x="1117.0" y="546" font-size="12" fill="#4f46e5" font-weight="700" text-anchor="middle">4</text>
<rect x="1134" y="535" width="12" height="12" rx="3" fill="none" stroke="#475569" stroke-width="1.6" />
<path d="M1137 541 L1139.5 543.5 L1143 538.5" fill="none" stroke="#475569" stroke-width="1.6" stroke-linecap="round" stroke-linejoin="round"/>
<text x="1154" y="546" font-size="13" fill="#0f172a" font-weight="600">Revise normalization (3NF, BCNF)</text>
<text x="1154" y="565" font-size="12" fill="#64748b">Task · due today · high</text>
<text x="1108" y="598" font-size="12" fill="#4f46e5" font-weight="600">Open</text>
<text x="1190" y="598" font-size="12" fill="#64748b">Remove from answer</text>
<rect x="1096" y="618" width="328" height="114" rx="10" fill="#ffffff" stroke="#e2e8f0" stroke-width="1" />
<rect x="1108" y="632" width="18" height="16" rx="5" fill="#eef2ff" stroke="#c7d2fe" stroke-width="1" />
<text x="1117.0" y="644" font-size="12" fill="#4f46e5" font-weight="700" text-anchor="middle">5</text>
<path d="M1135 632 H1142 L1145 635 V646 H1135 Z M1137.5 638 H1142.5 M1137.5 641.5 H1142.5" fill="none" stroke="#475569" stroke-width="1.6" stroke-linecap="round" stroke-linejoin="round"/>
<text x="1154" y="644" font-size="13" fill="#0f172a" font-weight="600">DBMS previous papers 2024</text>
<text x="1154" y="663" font-size="12" fill="#64748b">#exams · 3 days ago</text>
<rect x="1108" y="676" width="304" height="26" rx="6" fill="#f1f5f9" />
<text x="1116" y="693" font-size="12" fill="#475569">Q4. Decompose R into BCNF and check whether…</text>
<text x="1108" y="722" font-size="12" fill="#4f46e5" font-weight="600">Open note</text>
<text x="1190" y="722" font-size="12" fill="#64748b">Remove from answer</text>
<line x1="1096" y1="800" x2="1424" y2="800" stroke="#e2e8f0" stroke-width="1"/>
<path d="M1106 817 L1112 819.5 V824 C1112 828 1109 830 1106 831.5 C1103 830 1100 828 1100 824 V819.5 Z" fill="none" stroke="#475569" stroke-width="1.4" stroke-linecap="round" stroke-linejoin="round"/>
<text x="1120" y="828" font-size="12" fill="#475569">2 notes tagged #private were excluded</text>
<text x="1120" y="846" font-size="12" fill="#64748b">Private notes are never sent to any model.</text>
<text x="1100" y="878" font-size="12" fill="#4f46e5" font-weight="600">View raw prompt</text>
<text x="1424" y="878" font-size="12" fill="#4f46e5" font-weight="600" text-anchor="end">Copy as Markdown</text>
</svg>
