<svg xmlns="http://www.w3.org/2000/svg" viewBox="0 0 1440 900" width="1440" height="900" font-family="Inter, Segoe UI, Arial, sans-serif" role="img" aria-labelledby="t d"><title id="t">Peblo AI Hub: Connections (models, Peblo MCP Server, Peblo Connect)</title><desc id="d">Mid-fidelity wireframe of the Connections tab of the AI Hub. Three columns: model providers (Ollama detected models, an OpenAI-compatible endpoint, cloud keys, routing and privacy rules); Peblo MCP Server (on/off, copy-config for Claude Desktop, Cursor and VS Code, connected clients with permissions, activity log); Peblo Connect (external MCP servers, their tools and trust level, and an Add server form).</desc><defs><filter id="blur" x="-10%" y="-10%" width="120%" height="140%"><feGaussianBlur stdDeviation="8"/></filter></defs><rect width="1440" height="900" fill="#f8fafc"/>
<rect x="0" y="0" width="64" height="900" rx="0" fill="#ffffff" />
<line x1="64" y1="0" x2="64" y2="900" stroke="#e2e8f0" stroke-width="1"/>
<rect x="18" y="16" width="28" height="28" rx="8" fill="#4f46e5" />
<text x="32" y="35" font-size="17" fill="#fff" font-weight="700" text-anchor="middle">p</text>
<rect x="14" y="60" width="36" height="36" rx="8" fill="#f1f5f9" />
<circle cx="31" cy="77" r="5" fill="none" stroke="#475569" stroke-width="1.6"/>
<path d="M35 81 L39 85" fill="none" stroke="#475569" stroke-width="1.6" stroke-linecap="round" stroke-linejoin="round"/>
<path d="M26 132 L32 126 L38 132 M28 131 V138 H36 V131" fill="none" stroke="#475569" stroke-width="1.6" stroke-linecap="round" stroke-linejoin="round"/>
<path d="M27 173 H34 L37 176 V187 H27 Z M29.5 179 H34.5 M29.5 182.5 H34.5" fill="none" stroke="#475569" stroke-width="1.6" stroke-linecap="round" stroke-linejoin="round"/>
<rect x="26" y="222" width="12" height="12" rx="3" fill="none" stroke="#475569" stroke-width="1.6" />
<path d="M29 228 L31.5 230.5 L35 225.5" fill="none" stroke="#475569" stroke-width="1.6" stroke-linecap="round" stroke-linejoin="round"/>
<rect x="26" y="271" width="12" height="11" rx="2" fill="none" stroke="#475569" stroke-width="1.6" />
<path d="M26 275 H38 M29 269 V272 M35 269 V272" fill="none" stroke="#475569" stroke-width="1.6" stroke-linecap="round" stroke-linejoin="round"/>
<rect x="12" y="304" width="40" height="40" rx="10" fill="#eef2ff" />
<rect x="0" y="312" width="3" height="24" rx="1.5" fill="#4f46e5" />
<path d="M32 317 L33.6 322.4 L39 324 L33.6 325.6 L32 331 L30.4 325.6 L25 324 L30.4 322.4 Z" fill="none" stroke="#4f46e5" stroke-width="1.4" stroke-linecap="round" stroke-linejoin="round"/>
<circle cx="32" cy="796" r="5" fill="#10b981"/>
<text x="32" y="816" font-size="12" fill="#047857" font-weight="600" text-anchor="middle">Local</text>
<circle cx="32" cy="856" r="2.5" fill="none" stroke="#475569" stroke-width="1.6"/>
<circle cx="32" cy="856" r="6" fill="none" stroke="#475569" stroke-width="1.6"/>
<path d="M32.0 850.0 L32 848" fill="none" stroke="#475569" stroke-width="2" stroke-linecap="round" stroke-linejoin="round"/>
<path d="M32.0 862.0 L32 864" fill="none" stroke="#475569" stroke-width="2" stroke-linecap="round" stroke-linejoin="round"/>
<path d="M26.0 856.0 L24 856" fill="none" stroke="#475569" stroke-width="2" stroke-linecap="round" stroke-linejoin="round"/>
<path d="M38.0 856.0 L40 856" fill="none" stroke="#475569" stroke-width="2" stroke-linecap="round" stroke-linejoin="round"/>
<rect x="64" y="0" width="264" height="900" rx="0" fill="#f8fafc" />
<line x1="328" y1="0" x2="328" y2="900" stroke="#e2e8f0" stroke-width="1"/>
<text x="84" y="38" font-size="18" fill="#0f172a" font-weight="700">AI Hub</text>
<rect x="80" y="56" width="232" height="34" rx="8" fill="#ffffff" stroke="#cbd5e1" stroke-width="1" />
<path d="M162.555 67.0 V79.0 M156.555 73.0 H168.555" fill="none" stroke="#0f172a" stroke-width="1.8" stroke-linecap="round" stroke-linejoin="round"/>
<text x="204" y="77.68" font-size="13" fill="#0f172a" font-weight="600" text-anchor="middle">New chat</text>
<rect x="80" y="104" width="52" height="26" rx="13.0" fill="#f8fafc" />
<text x="89" y="121.68" font-size="13" fill="#475569" font-weight="500">Chats</text>
<rect x="138" y="104" width="93" height="26" rx="13.0" fill="#eef2ff" stroke="#c7d2fe" stroke-width="1" />
<text x="147" y="121.68" font-size="13" fill="#3730a3" font-weight="500">Connections</text>
<rect x="237" y="104" width="60" height="26" rx="13.0" fill="#f8fafc" />
<text x="246" y="121.68" font-size="13" fill="#475569" font-weight="500">Agents</text>
<rect x="74" y="150" width="244" height="36" rx="8" fill="#ffffff" stroke="#c7d2fe" stroke-width="1" />
<rect x="89" y="163" width="10" height="10" rx="2" fill="none" stroke="#4f46e5" stroke-width="1.6" />
<path d="M92 161 V163 M96 161 V163 M92 173 V175 M96 173 V175 M87 166 H89 M87 170 H89 M99 166 H101 M99 170 H101" fill="none" stroke="#4f46e5" stroke-width="1.3" stroke-linecap="round" stroke-linejoin="round"/>
<text x="110" y="173" font-size="13" fill="#0f172a" font-weight="600">Models</text>
<text x="304" y="173" font-size="12" fill="#64748b" text-anchor="end">4</text>
<path d="M91 203 V207 M97 203 V207 M89 207 H99 V210 A5 5 0 0 1 89 210 Z M94 215 V218" fill="none" stroke="#475569" stroke-width="1.6" stroke-linecap="round" stroke-linejoin="round"/>
<text x="110" y="215" font-size="13" fill="#0f172a" font-weight="500">Peblo MCP Server</text>
<text x="304" y="215" font-size="12" fill="#047857" font-weight="600" text-anchor="end">On</text>
<path d="M96 246 A4 4 0 1 0 99 251 L97 249 Z M95 250 L89 257 L90.5 258.5 L96.5 252.5" fill="none" stroke="#475569" stroke-width="1.4" stroke-linecap="round" stroke-linejoin="round"/>
<text x="110" y="257" font-size="13" fill="#0f172a" font-weight="500">Peblo Connect</text>
<text x="304" y="257" font-size="12" fill="#64748b" text-anchor="end">3</text>
<path d="M88 288 H93 A1 1 0 0 1 94 289 V301 A1 1 0 0 0 93 300 H88 Z M100 288 H95 A1 1 0 0 0 94 289 M100 288 V300 H95 A1 1 0 0 0 94 301" fill="none" stroke="#475569" stroke-width="1.3" stroke-linecap="round" stroke-linejoin="round"/>
<text x="110" y="299" font-size="13" fill="#64748b" font-weight="500">Data sources</text>
<text x="304" y="299" font-size="12" fill="#64748b" text-anchor="end">Later</text>
<path d="M95 329 L90 337 H94 L93 343 L98 335 H94 Z" fill="none" stroke="#475569" stroke-width="1.4" stroke-linecap="round" stroke-linejoin="round"/>
<text x="110" y="341" font-size="13" fill="#64748b" font-weight="500">Automations</text>
<text x="304" y="341" font-size="12" fill="#64748b" text-anchor="end">Later</text>
<rect x="76" y="390" width="240" height="300" rx="10" fill="#ffffff" stroke="#e2e8f0" stroke-width="1" />
<text x="90" y="416" font-size="13" fill="#0f172a" font-weight="700">How your data flows</text>
<rect x="90" y="434" width="212" height="30" rx="8" fill="#f1f5f9" stroke="#cbd5e1" stroke-width="1" />
<text x="196.0" y="454" font-size="12" fill="#0f172a" font-weight="600" text-anchor="middle">Claude Desktop, Cursor, VS Code</text>
<path d="M196 466 V486" fill="none" stroke="#64748b" stroke-width="1.6" stroke-linecap="round" stroke-linejoin="round"/>
<path d="M191 480 L196 486 L201 480" fill="none" stroke="#64748b" stroke-width="1.6" stroke-linecap="round" stroke-linejoin="round"/>
<rect x="90" y="488" width="212" height="30" rx="8" fill="#eef2ff" stroke="#c7d2fe" stroke-width="1" />
<text x="196.0" y="508" font-size="12" fill="#3730a3" font-weight="600" text-anchor="middle">Peblo MCP Server</text>
<path d="M196 520 V540" fill="none" stroke="#64748b" stroke-width="1.6" stroke-linecap="round" stroke-linejoin="round"/>
<path d="M191 534 L196 540 L201 534" fill="none" stroke="#64748b" stroke-width="1.6" stroke-linecap="round" stroke-linejoin="round"/>
<rect x="90" y="542" width="212" height="30" rx="8" fill="#4f46e5" stroke="#4f46e5" stroke-width="1" />
<text x="196.0" y="562" font-size="12" fill="#ffffff" font-weight="600" text-anchor="middle">Peblo Core: your notes, tasks</text>
<path d="M146 574 V596" fill="none" stroke="#64748b" stroke-width="1.6" stroke-linecap="round" stroke-linejoin="round"/>
<path d="M246 574 V596" fill="none" stroke="#64748b" stroke-width="1.6" stroke-linecap="round" stroke-linejoin="round"/>
<rect x="90" y="598" width="100" height="30" rx="8" fill="#ecfdf5" stroke="#a7f3d0" stroke-width="1" />
<text x="140.0" y="618" font-size="12" fill="#047857" font-weight="600" text-anchor="middle">Models</text>
<rect x="202" y="598" width="100" height="30" rx="8" fill="#f0f9ff" stroke="#bae6fd" stroke-width="1" />
<text x="252.0" y="618" font-size="12" fill="#0369a1" font-weight="600" text-anchor="middle">Peblo Connect</text>
<path d="M252 630 V646" fill="none" stroke="#64748b" stroke-width="1.6" stroke-linecap="round" stroke-linejoin="round"/>
<rect x="202" y="648" width="100" height="30" rx="8" fill="#f1f5f9" stroke="#cbd5e1" stroke-width="1" />
<text x="252.0" y="668" font-size="12" fill="#0f172a" font-weight="600" text-anchor="middle">Other tools</text>
<text x="90" y="670" font-size="12" fill="#64748b">Arrows show who</text>
<text x="90" y="684" font-size="12" fill="#64748b">asks whom.</text>
<rect x="76" y="706" width="240" height="90" rx="10" fill="#ffffff" stroke="#e2e8f0" stroke-width="1" />
<path d="M96 723 L102 725.5 V730 C102 734 99 736 96 737.5 C93 736 90 734 90 730 V725.5 Z" fill="none" stroke="#047857" stroke-width="1.4" stroke-linecap="round" stroke-linejoin="round"/>
<text x="110" y="734" font-size="12" fill="#475569">Everything is off until you</text>
<text x="110" y="752" font-size="12" fill="#475569">turn it on. Nothing here opens</text>
<text x="110" y="770" font-size="12" fill="#475569">a port to your network.</text>
<rect x="328" y="0" width="1112" height="900" rx="0" fill="#f8fafc" />
<text x="352" y="40" font-size="22" fill="#0f172a" font-weight="700">Connections</text>
<text x="352" y="64" font-size="13" fill="#475569">Choose where the AI runs, which apps may use Peblo, and which outside tools Peblo's AI may use.</text>
<text x="352" y="100" font-size="15" fill="#0f172a" font-weight="700">Models</text>
<text x="416" y="100" font-size="12" fill="#64748b">Where the AI runs</text>
<text x="712" y="100" font-size="15" fill="#0f172a" font-weight="700">Peblo MCP Server</text>
<text x="860" y="100" font-size="12" fill="#64748b">Other apps use Peblo</text>
<text x="1072" y="100" font-size="15" fill="#0f172a" font-weight="700">Peblo Connect</text>
<text x="1188" y="100" font-size="12" fill="#64748b">Peblo's AI uses other tools</text>
<rect x="352" y="116" width="344" height="252" rx="12" fill="#ffffff" stroke="#e2e8f0" stroke-width="1" />
<text x="368" y="142" font-size="14" fill="#0f172a" font-weight="700">Ollama</text>
<rect x="428" y="127" width="62" height="20" rx="10.0" fill="#ecfdf5" stroke="#a7f3d0" stroke-width="1" />
<circle cx="440" cy="137.0" r="3.5" fill="#10b981"/>
<text x="449" y="141.32" font-size="12" fill="#047857" font-weight="500">Local</text>
<text x="680" y="142" font-size="12" fill="#64748b" text-anchor="end">Detected</text>
<circle cx="372" cy="162" r="4" fill="#10b981"/>
<text x="382" y="166" font-size="12" fill="#475569">Running at 127.0.0.1:11434</text>
<rect x="364" y="182" width="320" height="42" rx="8" fill="#f8fafc" />
<text x="376" y="200" font-size="13" fill="#0f172a" font-weight="600">llama3.2 3B</text>
<text x="376" y="217" font-size="12" fill="#64748b">Chat · default for new chats</text>
<rect x="602" y="192" width="57" height="20" rx="10.0" fill="#eef2ff" stroke="#c7d2fe" stroke-width="1" />
<text x="611" y="206.32" font-size="12" fill="#3730a3" font-weight="500">Default</text>
<rect x="364" y="230" width="320" height="42" rx="8" fill="#f8fafc" />
<text x="376" y="248" font-size="13" fill="#0f172a" font-weight="600">qwen2.5 7B</text>
<text x="376" y="265" font-size="12" fill="#64748b">Chat · better reasoning, slower</text>
<rect x="364" y="278" width="320" height="42" rx="8" fill="#f8fafc" />
<text x="376" y="296" font-size="13" fill="#0f172a" font-weight="600">nomic-embed-text</text>
<text x="376" y="313" font-size="12" fill="#64748b">Embeddings · search index 214/214 notes</text>
<rect x="608" y="288" width="59" height="20" rx="10.0" fill="#eef2ff" stroke="#c7d2fe" stroke-width="1" />
<text x="617" y="302.32" font-size="12" fill="#3730a3" font-weight="500">Search</text>
<rect x="364" y="330" width="101" height="28" rx="8" fill="#ffffff" stroke="#cbd5e1" stroke-width="1" />
<text x="414" y="348.32" font-size="12" fill="#0f172a" font-weight="600" text-anchor="middle">Pull a model</text>
<text x="680" y="348" font-size="12" fill="#4f46e5" font-weight="600" text-anchor="end">Refresh</text>
<rect x="352" y="378" width="344" height="64" rx="12" fill="#ffffff" stroke="#e2e8f0" stroke-width="1" />
<text x="368" y="404" font-size="14" fill="#0f172a" font-weight="700">LM Studio</text>
<rect x="452" y="389" width="130" height="20" rx="10.0" fill="#f1f5f9" stroke="#e2e8f0" stroke-width="1" />
<text x="461" y="403.32" font-size="12" fill="#475569" font-weight="500">OpenAI-compatible</text>
<rect x="596" y="389" width="62" height="20" rx="10.0" fill="#ecfdf5" stroke="#a7f3d0" stroke-width="1" />
<circle cx="608" cy="399.0" r="3.5" fill="#10b981"/>
<text x="617" y="403.32" font-size="12" fill="#047857" font-weight="500">Local</text>
<circle cx="372" cy="424" r="4" fill="#10b981"/>
<text x="382" y="428" font-size="12" fill="#475569">localhost:1234/v1 · 1 model (phi-3.5-mini)</text>
<rect x="352" y="452" width="344" height="110" rx="12" fill="#ffffff" stroke="#e2e8f0" stroke-width="1" />
<text x="368" y="478" font-size="14" fill="#0f172a" font-weight="700">Cloud keys</text>
<rect x="460" y="463" width="173" height="20" rx="10.0" fill="#f0f9ff" stroke="#bae6fd" stroke-width="1" />
<text x="469" y="477.32" font-size="12" fill="#0369a1" font-weight="500">Sends prompts to provider</text>
<circle cx="372" cy="504" r="4" fill="#10b981"/>
<text x="382" y="508" font-size="13" fill="#0f172a" font-weight="600">OpenAI</text>
<text x="436" y="508" font-size="12" fill="#64748b">key ••••4f2a · GPT-4o mini</text>
<text x="680" y="508" font-size="12" fill="#4f46e5" font-weight="600" text-anchor="end">Edit</text>
<circle cx="372" cy="536" r="4" fill="#b45309"/>
<text x="382" y="540" font-size="13" fill="#0f172a" font-weight="600">Gemini</text>
<text x="438" y="540" font-size="12" fill="#b45309">Quota reached</text>
<text x="680" y="540" font-size="12" fill="#4f46e5" font-weight="600" text-anchor="end">Replace key</text>
<rect x="352" y="572" width="344" height="176" rx="12" fill="#ffffff" stroke="#e2e8f0" stroke-width="1" />
<text x="368" y="598" font-size="14" fill="#0f172a" font-weight="700">Routing and privacy</text>
<text x="368" y="620" font-size="12" fill="#475569">If the chosen model is not available:</text>
<circle cx="376" cy="640" r="7.5" fill="#ffffff" stroke="#4f46e5" stroke-width="1.5"/>
<circle cx="376" cy="640" r="4" fill="#4f46e5"/>
<text x="392" y="645" font-size="13" fill="#0f172a">Ask me first (recommended)</text>
<circle cx="376" cy="666" r="7.5" fill="#ffffff" stroke="#cbd5e1" stroke-width="1.5"/>
<text x="392" y="671" font-size="13" fill="#0f172a">Use another local model</text>
<circle cx="376" cy="692" r="7.5" fill="#ffffff" stroke="#cbd5e1" stroke-width="1.5"/>
<text x="392" y="697" font-size="13" fill="#0f172a">Use any model, including cloud</text>
<rect x="368" y="716" width="16" height="16" rx="4" fill="#4f46e5" />
<path d="M372 724.5 L375 727.5 L380.5 721" fill="none" stroke="#fff" stroke-width="2" stroke-linecap="round" stroke-linejoin="round"/>
<text x="392" y="729" font-size="13" fill="#0f172a">Never send notes tagged #private</text>
<rect x="352" y="758" width="344" height="32" rx="8" fill="#ffffff" stroke="#cbd5e1" stroke-width="1" />
<path d="M476.58 768.0 V780.0 M470.58 774.0 H482.58" fill="none" stroke="#0f172a" stroke-width="1.8" stroke-linecap="round" stroke-linejoin="round"/>
<text x="532" y="778.68" font-size="13" fill="#0f172a" font-weight="600" text-anchor="middle">Add provider</text>
<rect x="712" y="116" width="344" height="116" rx="12" fill="#ffffff" stroke="#e2e8f0" stroke-width="1" />
<text x="728" y="142" font-size="14" fill="#0f172a" font-weight="700">Peblo MCP Server</text>
<rect x="1006" y="128" width="34" height="20" rx="10" fill="#4f46e5" />
<circle cx="1030" cy="138" r="7" fill="#ffffff"/>
<circle cx="732" cy="162" r="4" fill="#10b981"/>
<text x="742" y="166" font-size="12" fill="#475569">On · local only (stdio and 127.0.0.1)</text>
<text x="728" y="190" font-size="12" fill="#64748b">Lets MCP apps read and change your Peblo data,</text>
<text x="728" y="208" font-size="12" fill="#64748b">within the permissions you set below.</text>
<rect x="712" y="242" width="344" height="214" rx="12" fill="#ffffff" stroke="#e2e8f0" stroke-width="1" />
<text x="728" y="268" font-size="14" fill="#0f172a" font-weight="700">Connect an app</text>
<rect x="728" y="280" width="103" height="24" rx="12.0" fill="#eef2ff" stroke="#c7d2fe" stroke-width="1" />
<text x="736" y="296.32" font-size="12" fill="#3730a3" font-weight="500">Claude Desktop</text>
<rect x="835" y="280" width="57" height="24" rx="12.0" fill="#f1f5f9" />
<text x="843" y="296.32" font-size="12" fill="#475569" font-weight="500">Cursor</text>
<rect x="896" y="280" width="63" height="24" rx="12.0" fill="#f1f5f9" />
<text x="904" y="296.32" font-size="12" fill="#475569" font-weight="500">VS Code</text>
<rect x="963" y="280" width="48" height="24" rx="12.0" fill="#f1f5f9" />
<text x="971" y="296.32" font-size="12" fill="#475569" font-weight="500">Other</text>
<rect x="728" y="314" width="312" height="96" rx="8" fill="#0f172a" />
<text x="740" y="336" font-size="12" fill="#e2e8f0" font-family="Consolas, Menlo, monospace">{ "mcpServers": {</text>
<text x="740" y="354" font-size="12" fill="#e2e8f0" font-family="Consolas, Menlo, monospace">    "peblo": { "command": "peblo-mcp",</text>
<text x="740" y="372" font-size="12" fill="#e2e8f0" font-family="Consolas, Menlo, monospace">               "args": ["--stdio"] }</text>
<text x="740" y="390" font-size="12" fill="#e2e8f0" font-family="Consolas, Menlo, monospace">} }</text>
<rect x="728" y="418" width="118" height="28" rx="8" fill="#4f46e5" />
<rect x="745.2" y="428.0" width="9" height="10" rx="2" fill="none" stroke="#ffffff" stroke-width="1.4" />
<path d="M743.2 435.0 V426.0 H751.2" fill="none" stroke="#ffffff" stroke-width="1.4" stroke-linecap="round" stroke-linejoin="round"/>
<text x="795" y="436.32" font-size="12" fill="#ffffff" font-weight="600" text-anchor="middle">Copy config</text>
<text x="1040" y="436" font-size="12" fill="#4f46e5" text-anchor="end">Open claude_desktop_config.json</text>
<rect x="712" y="466" width="344" height="196" rx="12" fill="#ffffff" stroke="#e2e8f0" stroke-width="1" />
<text x="728" y="492" font-size="14" fill="#0f172a" font-weight="700">Connected apps</text>
<circle cx="732" cy="516" r="4" fill="#10b981"/>
<text x="742" y="520" font-size="13" fill="#0f172a" font-weight="600">Claude Desktop</text>
<text x="1040" y="520" font-size="12" fill="#64748b" text-anchor="end">active 2 min ago</text>
<text x="742" y="542" font-size="12" fill="#475569">Notes</text>
<rect x="822" y="528" width="46" height="20" rx="10.0" fill="#ecfdf5" stroke="#a7f3d0" stroke-width="1" />
<text x="831" y="542.32" font-size="12" fill="#047857" font-weight="500">Read</text>
<rect x="882" y="528" width="77" height="20" rx="10.0" fill="#fffbeb" stroke="#fde68a" stroke-width="1" />
<text x="891" y="542.32" font-size="12" fill="#b45309" font-weight="500">Write: ask</text>
<text x="742" y="566" font-size="12" fill="#475569">Tasks</text>
<rect x="822" y="552" width="46" height="20" rx="10.0" fill="#ecfdf5" stroke="#a7f3d0" stroke-width="1" />
<text x="831" y="566.32" font-size="12" fill="#047857" font-weight="500">Read</text>
<rect x="882" y="552" width="81" height="20" rx="10.0" fill="#eef2ff" stroke="#c7d2fe" stroke-width="1" />
<text x="891" y="566.32" font-size="12" fill="#3730a3" font-weight="500">Write: auto</text>
<text x="742" y="590" font-size="12" fill="#475569">Calendar</text>
<rect x="822" y="576" width="46" height="20" rx="10.0" fill="#ecfdf5" stroke="#a7f3d0" stroke-width="1" />
<text x="831" y="590.32" font-size="12" fill="#047857" font-weight="500">Read</text>
<rect x="882" y="576" width="71" height="20" rx="10.0" fill="#f1f5f9" stroke="#e2e8f0" stroke-width="1" />
<text x="891" y="590.32" font-size="12" fill="#475569" font-weight="500">Write: off</text>
<text x="742" y="618" font-size="12" fill="#4f46e5" font-weight="600">Edit permissions</text>
<text x="862" y="618" font-size="12" fill="#b91c1c" font-weight="600">Revoke</text>
<line x1="728" y1="632" x2="1040" y2="632" stroke="#e2e8f0" stroke-width="1"/>
<circle cx="732" cy="652" r="4" fill="#cbd5e1"/>
<text x="742" y="656" font-size="13" fill="#0f172a" font-weight="600">Cursor</text>
<text x="796" y="656" font-size="12" fill="#64748b">read-only · #internship</text>
<text x="1040" y="656" font-size="12" fill="#64748b" text-anchor="end">yesterday</text>
<rect x="712" y="672" width="344" height="164" rx="12" fill="#ffffff" stroke="#e2e8f0" stroke-width="1" />
<text x="728" y="698" font-size="14" fill="#0f172a" font-weight="700">Activity log</text>
<text x="1040" y="698" font-size="12" fill="#4f46e5" font-weight="600" text-anchor="end">Export</text>
<text x="728" y="724" font-size="12" fill="#64748b">10:44</text>
<text x="768" y="724" font-size="12" fill="#475569">Claude</text>
<text x="818" y="724" font-size="12" fill="#0f172a" font-family="Consolas, Menlo, monospace">search_notes</text>
<text x="922" y="724" font-size="12" fill="#64748b">“internship feedback”</text>
<text x="728" y="750" font-size="12" fill="#64748b">10:44</text>
<text x="768" y="750" font-size="12" fill="#475569">Claude</text>
<text x="818" y="750" font-size="12" fill="#0f172a" font-family="Consolas, Menlo, monospace">get_note</text>
<text x="922" y="750" font-size="12" fill="#64748b">Internship weekly log</text>
<text x="728" y="776" font-size="12" fill="#64748b">10:31</text>
<text x="768" y="776" font-size="12" fill="#475569">Claude</text>
<text x="818" y="776" font-size="12" fill="#0f172a" font-family="Consolas, Menlo, monospace">create_task</text>
<text x="922" y="776" font-size="12" fill="#64748b">approved by you</text>
<text x="728" y="802" font-size="12" fill="#64748b">Yest.</text>
<text x="768" y="802" font-size="12" fill="#475569">Cursor</text>
<text x="818" y="802" font-size="12" fill="#0f172a" font-family="Consolas, Menlo, monospace">get_note</text>
<text x="922" y="802" font-size="12" fill="#64748b">API design notes</text>
<rect x="1072" y="116" width="344" height="82" rx="12" fill="#ffffff" stroke="#e2e8f0" stroke-width="1" />
<text x="1088" y="142" font-size="14" fill="#0f172a" font-weight="700">Google Calendar</text>
<rect x="1211" y="127" width="67" height="20" rx="10.0" fill="#f0f9ff" stroke="#bae6fd" stroke-width="1" />
<text x="1220" y="141.32" font-size="12" fill="#0369a1" font-weight="500">External</text>
<rect x="1366" y="128" width="34" height="20" rx="10" fill="#4f46e5" />
<circle cx="1390" cy="138" r="7" fill="#ffffff"/>
<text x="1088" y="164" font-size="12" fill="#64748b">Remote · signed in with Google · 6 tools</text>
<text x="1088" y="185" font-size="12" fill="#475569">Trust:</text>
<text x="1128" y="185" font-size="12" fill="#0f172a" font-weight="600">Ask before writes</text>
<path d="M1243 179 L1247 183 L1251 179" fill="none" stroke="#64748b" stroke-width="1.6" stroke-linecap="round" stroke-linejoin="round"/>
<text x="1400" y="185" font-size="12" fill="#4f46e5" font-weight="600" text-anchor="end">Tools</text>
<rect x="1072" y="206" width="344" height="82" rx="12" fill="#ffffff" stroke="#e2e8f0" stroke-width="1" />
<text x="1088" y="232" font-size="14" fill="#0f172a" font-weight="700">GitHub</text>
<rect x="1140" y="217" width="67" height="20" rx="10.0" fill="#f0f9ff" stroke="#bae6fd" stroke-width="1" />
<text x="1149" y="231.32" font-size="12" fill="#0369a1" font-weight="500">External</text>
<rect x="1366" y="218" width="34" height="20" rx="10" fill="#4f46e5" />
<circle cx="1390" cy="228" r="7" fill="#ffffff"/>
<text x="1088" y="254" font-size="12" fill="#64748b">Local command · npx server-github · 26 tools</text>
<text x="1088" y="275" font-size="12" fill="#475569">Trust:</text>
<text x="1128" y="275" font-size="12" fill="#0f172a" font-weight="600">Read only</text>
<path d="M1193 269 L1197 273 L1201 269" fill="none" stroke="#64748b" stroke-width="1.6" stroke-linecap="round" stroke-linejoin="round"/>
<text x="1400" y="275" font-size="12" fill="#4f46e5" font-weight="600" text-anchor="end">Tools</text>
<rect x="1072" y="296" width="344" height="82" rx="12" fill="#ffffff" stroke="#e2e8f0" stroke-width="1" />
<text x="1088" y="322" font-size="14" fill="#0f172a" font-weight="700">Files: ~/College</text>
<rect x="1208" y="307" width="62" height="20" rx="10.0" fill="#ecfdf5" stroke="#a7f3d0" stroke-width="1" />
<circle cx="1220" cy="317.0" r="3.5" fill="#10b981"/>
<text x="1229" y="321.32" font-size="12" fill="#047857" font-weight="500">Local</text>
<rect x="1366" y="308" width="34" height="20" rx="10" fill="#cbd5e1" />
<circle cx="1376" cy="318" r="7" fill="#ffffff"/>
<text x="1088" y="344" font-size="12" fill="#64748b">Local command · filesystem · 4 tools</text>
<text x="1088" y="365" font-size="12" fill="#475569">Trust:</text>
<text x="1128" y="365" font-size="12" fill="#0f172a" font-weight="600">Read only</text>
<path d="M1193 359 L1197 363 L1201 359" fill="none" stroke="#64748b" stroke-width="1.6" stroke-linecap="round" stroke-linejoin="round"/>
<text x="1400" y="365" font-size="12" fill="#4f46e5" font-weight="600" text-anchor="end">Tools</text>
<rect x="1072" y="390" width="344" height="364" rx="12" fill="#ffffff" stroke="#4f46e5" stroke-width="1.5" />
<text x="1088" y="418" font-size="14" fill="#0f172a" font-weight="700">Add an MCP server</text>
<path d="M1390 409 L1398 417 M1398 409 L1390 417" fill="none" stroke="#64748b" stroke-width="1.6" stroke-linecap="round" stroke-linejoin="round"/>
<text x="1088" y="442" font-size="12" fill="#475569" font-weight="600">Name</text>
<rect x="1088" y="450" width="312" height="32" rx="8" fill="#ffffff" stroke="#cbd5e1" stroke-width="1" />
<text x="1100" y="470.68" font-size="13" fill="#0f172a">College LMS</text>
<text x="1088" y="502" font-size="12" fill="#475569" font-weight="600">Type</text>
<circle cx="1136" cy="498" r="7.5" fill="#ffffff" stroke="#4f46e5" stroke-width="1.5"/>
<circle cx="1136" cy="498" r="4" fill="#4f46e5"/>
<text x="1150" y="503" font-size="13" fill="#0f172a">Remote URL</text>
<circle cx="1252" cy="498" r="7.5" fill="#ffffff" stroke="#cbd5e1" stroke-width="1.5"/>
<text x="1266" y="503" font-size="13" fill="#0f172a">Local command</text>
<rect x="1088" y="516" width="312" height="32" rx="8" fill="#ffffff" stroke="#cbd5e1" stroke-width="1" />
<text x="1100" y="536.32" font-size="12" fill="#0f172a">https://mcp.example-lms.edu/mcp</text>
<text x="1088" y="570" font-size="12" fill="#475569" font-weight="600">Found 4 tools</text>
<text x="1400" y="570" font-size="12" fill="#4f46e5" font-weight="600" text-anchor="end">Test again</text>
<rect x="1088" y="582" width="16" height="16" rx="4" fill="#4f46e5" />
<path d="M1092 590.5 L1095 593.5 L1100.5 587" fill="none" stroke="#fff" stroke-width="2" stroke-linecap="round" stroke-linejoin="round"/>
<text x="1114" y="595" font-size="12" fill="#0f172a" font-family="Consolas, Menlo, monospace">list_assignments</text>
<rect x="1346" y="580" width="46" height="20" rx="10.0" fill="#ecfdf5" stroke="#a7f3d0" stroke-width="1" />
<text x="1355" y="594.32" font-size="12" fill="#047857" font-weight="500">Read</text>
<rect x="1088" y="608" width="16" height="16" rx="4" fill="#4f46e5" />
<path d="M1092 616.5 L1095 619.5 L1100.5 613" fill="none" stroke="#fff" stroke-width="2" stroke-linecap="round" stroke-linejoin="round"/>
<text x="1114" y="621" font-size="12" fill="#0f172a" font-family="Consolas, Menlo, monospace">get_grades</text>
<rect x="1346" y="606" width="46" height="20" rx="10.0" fill="#ecfdf5" stroke="#a7f3d0" stroke-width="1" />
<text x="1355" y="620.32" font-size="12" fill="#047857" font-weight="500">Read</text>
<rect x="1088" y="634" width="16" height="16" rx="4" fill="#ffffff" stroke="#cbd5e1" stroke-width="1" />
<text x="1114" y="647" font-size="12" fill="#0f172a" font-family="Consolas, Menlo, monospace">submit_assignment</text>
<rect x="1346" y="632" width="49" height="20" rx="10.0" fill="#fffbeb" stroke="#fde68a" stroke-width="1" />
<text x="1355" y="646.32" font-size="12" fill="#b45309" font-weight="500">Write</text>
<rect x="1088" y="664" width="312" height="38" rx="8" fill="#fffbeb" stroke="#fde68a" stroke-width="1" />
<text x="1098" y="680" font-size="12" fill="#b45309">Only add servers you trust. A server sees</text>
<text x="1098" y="696" font-size="12" fill="#b45309">everything the AI sends to its tools.</text>
<rect x="1088" y="712" width="97" height="30" rx="8" fill="#4f46e5" />
<text x="1136" y="731.32" font-size="12" fill="#ffffff" font-weight="600" text-anchor="middle">Add server</text>
<text x="1202" y="732" font-size="12" fill="#475569">Trust: Ask every time</text>
</svg>
